:SAMPLES-PER-SECOND 30
:FULLY-SPECIFIED
:DEGREES
2345
root  6.54738 39.8031 14.9974 131.126 86.7186 134.081
RightUpLeg  -12.8125 -26.3359 -4.91487
RightLeg  21.2793 -5.31016 -1.41292
RightFoot  -5.83509 -0.0631627 0.489103
RightToes  0.000481921 0.542163 -0.142578
Spine  19.9769 -1.58434 4.10133
Spine1  12.9961 -1.17354 0.554125
HEad  -12.0333 2.5264 -2.84183
LeftShoulder1  6.13464 -14.738 -27.5052
LeftArm  -3.42285 -32.2715 -30.4939
LeftForeArm  137.988 -73.0994 -143.178
LeftHand  -0.25398 0.0180481 5.50724
RightShoulder  4.16052 9.22049 26.6451
RightArm  -0.225445 32.8576 26.3069
RightForeArm  92.0652 72.303 138.23
RightHand  -3.0334 7.25848 -27.7214
LeftUpLeg  -15.3084 11.2619 2.84496
LeftLeg  24.1951 5.3227 2.9403
LeftFoot  -6.3598 0.197021 -3.63979
LeftToes  1.06245e-005 4.65868e-005 -8.65517e-006
2346
root  6.60767 39.8894 15.1259 130.367 86.9042 133.342
RightUpLeg  -11.8316 -25.3884 -5.16279
RightLeg  20.1338 -6.28011 -0.783075
RightFoot  -5.89306 -0.0942431 1.14039
RightToes  0.000481921 0.542163 -0.142578
Spine  19.2174 -1.41761 3.91086
Spine1  12.7624 -1.09271 0.701287
HEad  -10.9596 2.44409 -2.62848
LeftShoulder1  5.048 -13.7728 -22.9157
LeftArm  -8.83883 -35.1609 -29.953
LeftForeArm  141.473 -71.805 -146.401
LeftHand  -0.25398 0.0180481 5.50724
RightShoulder  3.53261 8.37196 23.5595
RightArm  -3.71615 36.174 24.9863
RightForeArm  92.8284 71.2624 140.916
RightHand  -3.13032 7.38919 -28.287
LeftUpLeg  -15.2444 13.1676 1.36734
LeftLeg  25.016 5.79278 3.2723
LeftFoot  -7.10139 0.183839 -3.83611
LeftToes  1.06245e-005 4.65868e-005 -8.65517e-006
2347
root  6.68405 39.9374 15.2035 131.569 87.1822 134.589
RightUpLeg  -10.9747 -24.1226 -5.34977
RightLeg  19.2832 -7.5309 -0.218336
RightFoot  -6.0255 -0.127125 1.85633
RightToes  0.000481921 0.542163 -0.142578
Spine  18.6062 -1.26832 3.89468
Spine1  12.2978 -1.05819 1.06639
HEad  -9.65701 2.35074 -2.5988
LeftShoulder1  4.13558 -12.8353 -18.7573
LeftArm  -15.2322 -37.4796 -28.0775
LeftForeArm  143.611 -70.7698 -148.567
LeftHand  -0.25398 0.0180481 5.50724
RightShoulder  2.92529 7.42907 20.3794
RightArm  -7.59677 39.3012 23.0738
RightForeArm  93.295 70.4054 142.87
RightHand  -3.14978 7.3265 -28.5853
LeftUpLeg  -14.7536 14.732 0.0868425
LeftLeg  25.0497 5.5073 3.13464
LeftFoot  -7.62285 0.213487 -5.14931
LeftToes  1.06245e-005 4.65868e-005 -8.65517e-006
2348
root  6.77647 39.9754 15.2344 130.794 87.7091 133.904
RightUpLeg  -10.1666 -22.8953 -5.37011
RightLeg  18.463 -8.62562 0.32239
RightFoot  -6.08628 -0.147013 2.29977
RightToes  0.000481921 0.542163 -0.142578
Spine  18.0578 -1.07348 4.11946
Spine1  11.8279 -0.913653 1.36917
HEad  -8.44613 2.21034 -2.7808
LeftShoulder1  3.4092 -11.9096 -15.2948
LeftArm  -22.1443 -39.21 -25.0933
LeftForeArm  143.629 -70.0542 -149.73
LeftHand  -0.25398 0.0180481 5.50724
RightShoulder  2.33787 6.43638 16.882
RightArm  -12.1906 41.9086 20.8564
RightForeArm  93.4389 69.6945 144.334
RightHand  -3.07009 7.02717 -28.5312
LeftUpLeg  -13.4483 16.3306 -1.05188
LeftLeg  23.3855 4.6435 2.53223
LeftFoot  -7.55009 0.230257 -5.58398
LeftToes  1.06245e-005 4.65868e-005 -8.65517e-006
2349
root  6.87953 40.037 15.2294 117.687 88.3815 120.971
RightUpLeg  -9.24024 -21.9998 -5.3584
RightLeg  17.3593 -9.02492 0.876697
RightFoot  -5.82377 -0.159603 2.48901
RightToes  0.000481921 0.542163 -0.142578
Spine  17.4029 -0.782484 4.26053
Spine1  11.8068 -0.621236 1.45191
HEad  -7.64298 2.09387 -2.9344
LeftShoulder1  2.79734 -10.8782 -12.3652
LeftArm  -28.8135 -40.4734 -21.8299
LeftForeArm  142.764 -69.6146 -150.288
LeftHand  -0.25398 0.0180481 5.50724
RightShoulder  1.82133 5.44473 13.4229
RightArm  -17.4949 44.1403 18.4195
RightForeArm  93.3881 69.3004 145.088
RightHand  -3.00332 6.89269 -28.232
LeftUpLeg  -11.4281 17.7062 -2.10887
LeftLeg  20.063 4.16853 2.02773
LeftFoot  -6.57924 0.151166 -2.80363
LeftToes  1.06245e-005 4.65868e-005 -8.65517e-006
2350
root  6.98636 40.1095 15.205 87.4337 88.7104 90.9887
RightUpLeg  -8.37281 -21.5309 -5.4134
RightLeg  16.3651 -8.6782 1.21589
RightFoot  -5.33791 -0.167456 2.50133
RightToes  0.000481921 0.542163 -0.142578
Spine  16.818 -0.452473 3.95637
Spine1  11.9622 -0.357631 1.55283
HEad  -7.0188 2.18517 -2.79202
LeftShoulder1  2.30318 -9.86543 -9.90919
LeftArm  -34.509 -41.2003 -19.0221
LeftForeArm  142.804 -69.3172 -150.736
LeftHand  -0.25398 0.0180481 5.50724
RightShoulder  1.45805 4.551 10.9405
RightArm  -22.7747 46.1516 15.8706
RightForeArm  93.6302 69.3474 145.018
RightHand  -2.98777 7.03236 -27.796
LeftUpLeg  -9.43019 17.5621 -2.75558
LeftLeg  16.7635 5.34523 1.95178
LeftFoot  -5.11102 -0.0475034 1.4484
LeftToes  1.06245e-005 4.65868e-005 -8.65517e-006
2351
root  7.09252 40.1706 15.189 64.5508 88.4821 68.3937
RightUpLeg  -7.83075 -21.221 -5.53425
RightLeg  15.9584 -8.33665 1.14112
RightFoot  -4.93317 -0.161167 2.27917
RightToes  0.000481921 0.542163 -0.142578
Spine  16.5934 -0.173566 3.14195
Spine1  11.6104 -0.278 1.9162
HEad  -6.17667 2.53521 -2.32632
LeftShoulder1  1.99155 -9.18539 -8.20286
LeftArm  -38.5697 -41.3443 -16.99
LeftForeArm  143.699 -69.1168 -151.144
LeftHand  -0.25398 0.0180481 5.50724
RightShoulder  1.26756 3.9072 9.82403
RightArm  -26.8353 47.6292 13.9176
RightForeArm  94.1369 69.5677 144.642
RightHand  -2.96263 7.08677 -27.4604
LeftUpLeg  -8.08024 15.3308 -2.62988
LeftLeg  15.102 8.25758 1.89154
LeftFoot  -3.97285 -0.181113 3.22767
LeftToes  1.06245e-005 4.65868e-005 -8.65517e-006
2352
root  7.1991 40.2136 15.1913 61.1416 88.1939 65.2037
RightUpLeg  -7.55204 -20.9582 -5.7033
RightLeg  15.9812 -8.36576 0.864744
RightFoot  -4.64066 -0.143337 1.90843
RightToes  0.000481921 0.542163 -0.142578
Spine  16.5567 0.0117424 2.18391
Spine1  10.8599 -0.327284 2.37323
HEad  -5.15359 2.79701 -1.75251
LeftShoulder1  1.86951 -8.90019 -7.50157
LeftArm  -40.598 -41.2497 -15.848
LeftForeArm  144.32 -69.0348 -151.341
LeftHand  -0.25398 0.0180481 5.50724
RightShoulder  1.19858 3.61443 9.52062
RightArm  -29.0639 48.2157 13.3244
RightForeArm  94.7098 69.568 144.692
RightHand  -2.88291 6.80925 -27.3323
LeftUpLeg  -7.32799 14.9282 -2.34261
LeftLeg  14.6156 8.83062 1.6588
LeftFoot  -3.49129 -0.110953 1.9226
LeftToes  1.06245e-005 4.65868e-005 -8.65517e-006
2353
root  7.29766 40.2324 15.1895 60.8456 87.9433 65.0778
RightUpLeg  -7.42448 -21.6365 -5.86967
RightLeg  16.1756 -7.46411 0.68887
RightFoot  -4.30401 -0.127359 1.59825
RightToes  0.000481921 0.542163 -0.142578
Spine  16.2986 0.108982 1.50504
Spine1  10.49 -0.333177 2.45599
HEad  -4.33795 2.64524 -1.3244
LeftShoulder1  1.88087 -8.81158 -7.72421
LeftArm  -40.6747 -41.3032 -15.6908
LeftForeArm  144.48 -68.9826 -151.436
LeftHand  -0.25398 0.0180481 5.50724
RightShoulder  1.21044 3.66744 9.56493
RightArm  -29.8372 48.0946 13.8648
RightForeArm  95.6897 69.3263 145.237
RightHand  -2.77296 6.42244 -27.1525
LeftUpLeg  -6.55439 15.568 -2.01839
LeftLeg  14.0666 8.26404 0.919449
LeftFoot  -3.36011 -0.0201564 0.576196
LeftToes  1.06245e-005 4.65868e-005 -8.65517e-006
2354
root  7.36343 40.2148 15.1589 57.4413 87.5367 61.8709
RightUpLeg  -7.77395 -24.5718 -5.92077
RightLeg  16.9881 -3.8689 0.51704
RightFoot  -4.00113 -0.120864 1.47573
RightToes  0.000481921 0.542163 -0.142578
Spine  15.9106 0.166533 1.08271
Spine1  10.6902 -0.211858 1.98473
HEad  -3.94644 2.24294 -1.13588
LeftShoulder1  1.99203 -8.87355 -8.6402
LeftArm  -39.2447 -41.3506 -16.4423
LeftForeArm  144.888 -68.7633 -151.794
LeftHand  -0.25398 0.0180481 5.50724
RightShoulder  1.30575 4.00436 10.133
RightArm  -29.5974 47.7127 14.7552
RightForeArm  97.3171 69.0557 145.88
RightHand  -2.68256 6.22117 -26.7413
LeftUpLeg  -5.80978 15.4386 -1.86055
LeftLeg  13.5377 8.73525 0.0908701
LeftFoot  -3.37402 -0.0330049 0.768917
LeftToes  1.06245e-005 4.65868e-005 -8.65517e-006
2355
root  7.3788 40.1392 15.0946 51.6341 86.9161 56.3201
RightUpLeg  -9.05346 -27.9917 -5.99193
RightLeg  19.3298 0.732089 0.291489
RightFoot  -3.90173 -0.162401 2.09877
RightToes  0.000481921 0.542163 -0.142578
Spine  15.8909 0.247886 0.714828
Spine1  10.9111 -0.0146562 1.34971
HEad  -3.99484 2.12612 -1.12069
LeftShoulder1  2.21873 -9.1827 -10.1905
LeftArm  -36.8314 -40.9355 -17.7146
LeftForeArm  145.979 -68.267 -152.6
LeftHand  -0.25398 0.0180481 5.50724
RightShoulder  1.49047 4.54653 11.3818
RightArm  -28.3121 47.1602 15.6971
RightForeArm  99.2412 68.7647 146.566
RightHand  -2.62804 6.16798 -26.3379
LeftUpLeg  -5.62439 15.2797 -2.04465
LeftLeg  13.9807 9.50709 -0.1117
LeftFoot  -3.75402 -0.0566874 1.19383
LeftToes  1.06245e-005 4.65868e-005 -8.65517e-006
